<?xml version="1.0" encoding="utf-8"?>
<!-- Generator: Adobe Illustrator 16.0.0, SVG Export Plug-In . SVG Version: 6.00 Build 0)  -->
<!DOCTYPE svg PUBLIC "-//W3C//DTD SVG 1.1//EN" "http://www.w3.org/Graphics/SVG/1.1/DTD/svg11.dtd">
<svg version="1.1" id="Calque_1" xmlns="http://www.w3.org/2000/svg" xmlns:xlink="http://www.w3.org/1999/xlink" x="0px" y="0px"
	 width="407.858px" height="400.659px" viewBox="449.259 140.612 407.858 400.659"
	 enable-background="new 449.259 140.612 407.858 400.659" xml:space="preserve">
<g id="earth">
	<path class="globe" d="M857.117,340.941c0,55.906-19.906,102.918-60.142,141.883s-88.094,58.447-143.999,58.447
		c-55.906,0-103.765-19.482-144-58.447s-59.718-85.977-59.718-141.883S469.164,237.6,509.4,198.635
		c39.813-38.965,87.671-58.023,143.577-58.023c55.905,0,103.764,19.482,143.576,58.023
		C837.211,238.023,857.117,285.459,857.117,340.941z M843.565,342.635v-7.2c-36.424-3.812-54.636-5.929-54.636-5.929
		c-0.847,0-10.164,0.847-27.529,2.541l10.589,20.329l-26.683,9.741l-15.247-34.729l-5.506,2.965
		c8.894,16.094,13.553,31.341,14.399,46.165c-8.894,10.588-17.788,21.6-26.682,32.611c0,23.718-2.541,45.317-7.624,64.377
		l-26.682,23.294l-19.482-12.706c-1.694-27.106-6.354-54.212-13.554-81.741l-16.518-23.294l-36.423-8.471l-9.318-22.023
		l6.354-31.765c10.588-2.965,25.835-8.895,45.741-16.941c4.658,3.389,10.588,5.506,17.788,6.353
		c6.353,0.848,12.282,1.694,18.635,2.542c0,0,8.895,2.541,26.683,7.199c10.165,2.965,19.482,4.235,27.106,4.659l8.471-21.177
		h-10.589l-5.93-32.188L690.67,266.4l1.694,10.588l13.13,16.941l-10.589-5.082l2.542,7.623l-18.636,4.235l7.2-5.082l-5.083-14.824
		l-12.282-8.894l-10.588,8.894l-13.977-2.541l-8.471,15.671l-16.094-8.047l12.282-14.823l18.635-5.083l7.624-11.436l27.105-12.282
		l5.93-6.776l5.93-25.411l-16.518,8.47l7.623,4.235l-11.435,10.165l-4.235-11.858l-5.93,9.317l-17.788-15.247l37.693-32.612h30.918
		l3.389-18.211c-20.33-7.624-41.93-11.859-64.801-11.859c-24.987,0-45.74,3.389-62.259,10.165c3.813,2.965,5.507,6.353,5.507,9.741
		c0,1.694-1.694,2.965-5.083,3.812c-2.541,0.424-4.658,0.847-7.2,1.271c-6.776,2.118-13.129,5.93-19.905,11.012
		s-13.13,14.823-18.636,28.377c-4.658,10.588-9.317,16.094-14.823,16.094c-3.389,0-6.354-2.965-8.895-8.471S520.835,216,520.411,216
		c-5.082,0-9.741,1.271-13.977,3.813c-11.435,7.623-22.023,24.141-31.765,49.553c-10.164,26.259-15.247,51.247-15.247,74.965
		c0,52.518,18.636,96.988,55.906,133.412c37.271,36.423,82.588,54.211,135.105,54.211c52.519,0,98.259-18.211,135.953-55.059
		C824.082,440.048,843.565,395.153,843.565,342.635z M619.518,210.494L612.741,216l-11.436,1.694l4.235-14.823h11.436
		L619.518,210.494z M636.459,240.141l-5.93,6.776l-2.541-7.624l4.235-7.199L636.459,240.141z M660.6,239.294l-9.317,9.741
		l-8.895-0.847l8.047-9.741l-5.082-1.694l-5.506-10.164l2.965-8.048L660.6,239.294z M671.188,293.083l-0.847,8.471l-8.047-8.471
		H671.188z"/>
</g>
<g id="french">
	<g>
		<g>
			<path d="M450.259,171.115c0,7.884,3.069,15.281,8.646,20.857c5.688,5.688,13.248,8.645,20.882,8.645
				c4.753,0,9.543-1.148,13.922-3.505c3.93,2.831,7.771,3.443,10.379,3.443c0.973,0,1.771-0.087,2.333-0.175
				c1.198-0.188,2.121-1.123,2.308-2.32c0.187-1.198-0.423-2.358-1.509-2.895c-2.258-1.11-3.78-3.331-4.729-5.239
				c9.668-11.639,8.92-28.892-1.858-39.669c-5.577-5.576-12.974-8.645-20.857-8.645c-7.884,0-15.282,3.069-20.858,8.645
				C453.341,155.833,450.259,163.231,450.259,171.115z M461.312,152.639c10.179-10.191,26.758-10.191,36.95,0
				c9.755,9.755,10.229,25.474,1.098,35.79c-0.237,0.274-0.375,0.611-0.412,0.949c-0.087,0.349-0.063,0.723,0.087,1.085
				c0.935,2.133,2.532,4.877,5.064,6.724h-0.012c-2.196,0-5.514-0.549-8.895-3.169c-0.037-0.038-0.087-0.075-0.137-0.1
				c-0.536-0.536-1.372-0.662-2.046-0.262c-10.254,6.025-23.29,4.354-31.71-4.066C451.108,179.397,451.108,162.832,461.312,152.639z
				"/>
		</g>
	</g>
	<g>
		<path d="M466.823,172.489c0,0.971-0.331,1.705-0.993,2.2c-0.662,0.497-1.611,0.745-2.849,0.745c-0.672,0-1.257-0.036-1.753-0.108
			c-0.496-0.072-1.003-0.204-1.521-0.396v-2.505c0.485,0.214,1.018,0.389,1.597,0.528c0.579,0.139,1.095,0.208,1.548,0.208
			c0.678,0,1.017-0.155,1.017-0.464c0-0.16-0.095-0.303-0.284-0.428s-0.74-0.369-1.653-0.732c-0.832-0.342-1.414-0.73-1.744-1.164
			c-0.331-0.436-0.496-0.986-0.496-1.653c0-0.843,0.325-1.5,0.976-1.969c0.651-0.47,1.571-0.705,2.761-0.705
			c0.598,0,1.16,0.065,1.685,0.196c0.525,0.131,1.071,0.321,1.637,0.572l-0.849,2.017c-0.416-0.187-0.856-0.345-1.32-0.477
			c-0.464-0.131-0.843-0.196-1.136-0.196c-0.512,0-0.769,0.125-0.769,0.375c0,0.155,0.089,0.288,0.268,0.397
			c0.179,0.109,0.695,0.332,1.549,0.668c0.635,0.261,1.108,0.517,1.42,0.768s0.541,0.546,0.688,0.884
			C466.749,171.592,466.823,172.003,466.823,172.489z"/>
		<path d="M474.473,175.274l-0.6-1.201h-0.064c-0.421,0.523-0.851,0.88-1.288,1.072c-0.438,0.193-1.003,0.289-1.697,0.289
			c-0.854,0-1.526-0.256-2.017-0.768c-0.491-0.512-0.736-1.232-0.736-2.161c0-0.965,0.336-1.685,1.008-2.157
			c0.672-0.473,1.646-0.738,2.92-0.796l1.513-0.048v-0.128c0-0.747-0.369-1.121-1.105-1.121c-0.661,0-1.501,0.224-2.521,0.672
			l-0.904-2.064c1.056-0.544,2.39-0.816,4.001-0.816c1.164,0,2.063,0.288,2.701,0.864c0.638,0.577,0.957,1.382,0.957,2.417v5.947
			H474.473z M472.152,173.225c0.379,0,0.703-0.12,0.972-0.36c0.27-0.24,0.404-0.552,0.404-0.936v-0.705l-0.72,0.033
			c-1.03,0.037-1.544,0.416-1.544,1.136C471.264,172.947,471.56,173.225,472.152,173.225z"/>
		<path d="M481.9,175.274h-3.129v-12.454h3.129V175.274z"/>
		<path d="M490.527,175.274l-0.392-1.129h-0.185c-0.261,0.417-0.625,0.735-1.092,0.957c-0.467,0.221-1.015,0.332-1.645,0.332
			c-0.998,0-1.774-0.289-2.329-0.868c-0.555-0.579-0.832-1.396-0.832-2.454v-5.906h3.129v4.954c0,0.592,0.084,1.041,0.252,1.345
			c0.168,0.304,0.444,0.456,0.828,0.456c0.539,0,0.923-0.212,1.153-0.636c0.229-0.424,0.344-1.141,0.344-2.148v-3.97h3.129v9.068
			H490.527z"/>
		<path d="M499.49,172.961c0.421,0,0.925-0.104,1.512-0.313v2.281c-0.421,0.182-0.823,0.312-1.205,0.388
			c-0.381,0.078-0.828,0.116-1.34,0.116c-1.051,0-1.809-0.257-2.273-0.772c-0.464-0.515-0.696-1.306-0.696-2.373v-3.737h-1.096
			v-1.272l1.392-0.985l0.808-1.904h2.049v1.816h2.225v2.345h-2.225v3.53C498.642,172.667,498.925,172.961,499.49,172.961z"/>
	</g>
</g>
<g id="english">
	<g>
		<g>
			<path d="M847.698,150.256c-5.576-5.575-12.973-8.644-20.856-8.644s-15.282,3.069-20.857,8.644
				c-10.778,10.779-11.526,28.031-1.859,39.67c-0.947,1.908-2.47,4.129-4.727,5.238c-1.086,0.537-1.697,1.697-1.511,2.895
				c0.188,1.197,1.109,2.134,2.309,2.32c0.562,0.088,1.36,0.175,2.332,0.175c2.607,0,6.449-0.611,10.38-3.442
				c4.379,2.356,9.169,3.505,13.921,3.505c7.635,0,15.194-2.956,20.883-8.645c5.575-5.576,8.645-12.974,8.645-20.857
				C856.357,163.23,853.276,155.833,847.698,150.256z M845.317,189.589c-8.421,8.42-21.457,10.092-31.711,4.066
				c-0.674-0.399-1.509-0.274-2.046,0.262c-0.049,0.025-0.1,0.063-0.137,0.101c-3.381,2.619-6.698,3.168-8.895,3.168h-0.013
				c2.533-1.847,4.13-4.591,5.065-6.724c0.149-0.361,0.175-0.735,0.088-1.085c-0.038-0.337-0.176-0.674-0.413-0.949
				c-9.131-10.316-8.656-26.033,1.1-35.789c10.19-10.192,26.77-10.192,36.948,0C855.508,162.831,855.508,179.397,845.317,189.589z"
				/>
		</g>
	</g>
	<g>
		<path d="M825.736,175.273v-4.946c0-1.216-0.361-1.824-1.082-1.824c-0.511,0-0.889,0.214-1.131,0.644
			c-0.243,0.43-0.364,1.144-0.364,2.141v3.985h-3.13V162.82h3.13v1.769c0,0.8-0.043,1.713-0.129,2.737h0.145
			c0.298-0.469,0.653-0.8,1.064-0.992c0.41-0.192,0.888-0.288,1.432-0.288c1.015,0,1.803,0.291,2.366,0.876
			c0.563,0.584,0.844,1.401,0.844,2.452v5.898H825.736z"/>
		<path d="M830.945,163.949c0-0.47,0.131-0.819,0.392-1.048c0.263-0.23,0.684-0.345,1.266-0.345c0.581,0,1.006,0.118,1.271,0.352
			c0.267,0.235,0.4,0.582,0.4,1.041c0,0.917-0.558,1.376-1.672,1.376C831.497,165.325,830.945,164.866,830.945,163.949z
			 M834.155,175.273h-3.129v-9.067h3.129V175.273z"/>
	</g>
</g>
<g id="polish">
	<g>
		<g>
			<path d="M856.117,510.771c0-7.884-3.068-15.282-8.646-20.858c-5.688-5.688-13.248-8.644-20.884-8.644
				c-4.752,0-9.541,1.146-13.92,3.504c-3.931-2.83-7.772-3.442-10.38-3.442c-0.972,0-1.769,0.086-2.332,0.174
				c-1.197,0.188-2.12,1.124-2.308,2.323c-0.186,1.195,0.425,2.355,1.512,2.893c2.257,1.109,3.777,3.33,4.726,5.237
				c-9.667,11.641-8.919,28.893,1.859,39.67c5.574,5.576,12.973,8.644,20.856,8.644c7.885,0,15.281-3.067,20.857-8.644
				C853.036,526.052,856.117,518.653,856.117,510.771z M845.062,529.246c-10.177,10.19-26.756,10.19-36.946,0
				c-9.755-9.757-10.23-25.474-1.099-35.791c0.238-0.273,0.375-0.61,0.413-0.948c0.086-0.348,0.062-0.723-0.088-1.084
				c-0.936-2.133-2.531-4.879-5.065-6.725h0.012c2.197,0,5.516,0.549,8.896,3.17c0.038,0.036,0.089,0.075,0.136,0.101
				c0.537,0.534,1.373,0.661,2.049,0.261c10.253-6.025,23.287-4.354,31.708,4.068C855.269,502.486,855.269,519.054,845.062,529.246z
				"/>
		</g>
	</g>
	<g>
		<path d="M807.323,514.458c-0.433,0-0.825-0.07-1.171-0.216c-0.342-0.146-0.687-0.403-1.025-0.779h-0.136
			c0.092,0.604,0.136,0.979,0.136,1.126v3.459h-2.973v-12.355h2.418l0.419,1.096h0.136c0.552-0.833,1.315-1.248,2.289-1.248
			c0.952,0,1.7,0.396,2.243,1.187c0.541,0.79,0.813,1.877,0.813,3.254c0,1.39-0.282,2.483-0.848,3.282
			C809.06,514.058,808.294,514.458,807.323,514.458z M806.329,507.874c-0.438,0-0.741,0.157-0.916,0.469
			c-0.176,0.312-0.271,0.774-0.286,1.387v0.235c0,0.743,0.099,1.275,0.298,1.604c0.196,0.329,0.509,0.495,0.935,0.495
			c0.38,0,0.655-0.165,0.828-0.491c0.173-0.327,0.259-0.865,0.259-1.622c0-0.741-0.086-1.271-0.259-1.593
			C807.015,508.035,806.729,507.874,806.329,507.874z"/>
		<path d="M812.109,503.55c0-0.447,0.121-0.779,0.37-0.996c0.247-0.219,0.65-0.327,1.202-0.327s0.956,0.112,1.209,0.333
			c0.253,0.225,0.381,0.553,0.381,0.99c0,0.87-0.529,1.306-1.59,1.306C812.632,504.855,812.109,504.42,812.109,503.55z
			 M815.155,514.307h-2.971v-8.615h2.971V514.307z"/>
		<path d="M821.39,514.458c-1.433,0-2.548-0.38-3.342-1.144c-0.792-0.763-1.19-1.849-1.19-3.257c0-1.454,0.369-2.572,1.103-3.351
			c0.734-0.777,1.785-1.167,3.149-1.167c1.297,0,2.298,0.338,3.004,1.016c0.707,0.676,1.063,1.65,1.063,2.923v1.322h-5.314
			c0.02,0.483,0.198,0.86,0.529,1.135c0.331,0.272,0.783,0.408,1.356,0.408c0.521,0,1.003-0.048,1.44-0.146
			c0.438-0.1,0.914-0.27,1.425-0.507v2.136c-0.468,0.239-0.946,0.404-1.443,0.493C822.67,514.413,822.08,514.458,821.39,514.458z
			 M821.216,507.562c-0.353,0-0.645,0.111-0.88,0.331c-0.234,0.221-0.372,0.566-0.415,1.039h2.556
			c-0.009-0.416-0.127-0.75-0.353-0.997C821.899,507.686,821.596,507.562,821.216,507.562z"/>
		<path d="M829.74,509.464c0.357-0.572,0.664-1.018,0.919-1.338l1.929-2.434h3.317l-2.989,3.665l3.179,4.95h-3.399l-1.886-3.088
			l-0.965,0.738v2.35h-2.987v-11.831h2.987v4.652c0,0.796-0.057,1.575-0.168,2.335H829.74z"/>
		<path d="M840.846,506.926l0.867-0.526l1.109,1.878l-1.977,1.171v4.859h-2.981v-3.065l-0.942,0.509l-1.064-1.886l2.007-1.146
			v-6.242h2.981V506.926z"/>
		<path d="M851.838,509.98c0,1.409-0.377,2.508-1.136,3.296c-0.759,0.787-1.818,1.182-3.182,1.182c-1.31,0-2.35-0.402-3.122-1.207
			c-0.771-0.807-1.158-1.896-1.158-3.271c0-1.403,0.378-2.495,1.136-3.273c0.759-0.777,1.82-1.167,3.189-1.167
			c0.847,0,1.595,0.179,2.243,0.539c0.649,0.363,1.147,0.877,1.502,1.549C851.662,508.298,851.838,509.082,851.838,509.98z
			 M846.26,509.98c0,0.74,0.097,1.305,0.296,1.692c0.197,0.388,0.528,0.58,0.995,0.58c0.461,0,0.787-0.192,0.977-0.58
			c0.191-0.388,0.285-0.952,0.285-1.692c0-0.735-0.098-1.29-0.288-1.664c-0.193-0.374-0.522-0.563-0.989-0.563
			c-0.457,0-0.782,0.188-0.979,0.559C846.357,508.684,846.26,509.241,846.26,509.98z"/>
	</g>
</g>
</svg>
